<?xml version="1.0" encoding="UTF-8"?>
<svg width="15px" height="15px" viewBox="0 0 15 15" version="1.1" xmlns="http://www.w3.org/2000/svg" xmlns:xlink="http://www.w3.org/1999/xlink">
    <!-- Generator: Sketch 49.3 (51167) - http://www.bohemiancoding.com/sketch -->
    <title>clock</title>
    <desc>Created with Sketch.</desc>
    <defs></defs>
    <g id="Page-1" stroke="none" stroke-width="1" fill="none" fill-rule="evenodd">
        <g id="Sort-Filter" transform="translate(-127.000000, -102.000000)" fill="#1F2329" fill-rule="nonzero">
            <g id="icons" transform="translate(67.000000, 25.000000)">
                <path d="M67.5,77 C63.3568548,77 60,80.3568548 60,84.5 C60,88.6431452 63.3568548,92 67.5,92 C71.6431452,92 75,88.6431452 75,84.5 C75,80.3568548 71.6431452,77 67.5,77 Z M74.0322581,84.5 C74.0322581,88.0897177 71.1260081,91.0322581 67.5,91.0322581 C63.9102823,91.0322581 60.9677419,88.1260081 60.9677419,84.5 C60.9677419,80.9102823 63.8739919,77.9677419 67.5,77.9677419 C71.0897177,77.9677419 74.0322581,80.8739919 74.0322581,84.5 Z M69.5292339,87.1703629 L67.0735887,85.3860887 C66.9798387,85.3165323 66.9254032,85.2076613 66.9254032,85.0927419 L66.9254032,80.266129 C66.9254032,80.0665323 67.0887097,79.9032258 67.2883065,79.9032258 L67.7116935,79.9032258 C67.9112903,79.9032258 68.0745968,80.0665323 68.0745968,80.266129 L68.0745968,84.6905242 L70.2066532,86.2419355 C70.3699597,86.359879 70.4032258,86.5866935 70.2852823,86.75 L70.0372984,87.0917339 C69.9193548,87.2520161 69.6925403,87.2883065 69.5292339,87.1703629 Z" id="clock"></path>
            </g>
        </g>
    </g>
</svg>