<?xml version="1.0" encoding="UTF-8"?>
<svg width="3px" height="15px" viewBox="0 0 3 15" version="1.1" xmlns="http://www.w3.org/2000/svg" xmlns:xlink="http://www.w3.org/1999/xlink">
    <!-- Generator: Sketch 49.3 (51167) - http://www.bohemiancoding.com/sketch -->
    <title>ellipsis-v</title>
    <desc>Created with Sketch.</desc>
    <defs></defs>
    <g id="Page-1" stroke="none" stroke-width="1" fill="none" fill-rule="evenodd">
        <g id="Default" transform="translate(-255.000000, -27.000000)" fill="#8C929D" fill-rule="nonzero">
            <g id="icons" transform="translate(67.000000, 25.000000)">
                <path d="M189.5,7.625 C190.329688,7.625 191,8.2953125 191,9.125 C191,9.9546875 190.329688,10.625 189.5,10.625 C188.670312,10.625 188,9.9546875 188,9.125 C188,8.2953125 188.670312,7.625 189.5,7.625 Z M188,3.5 C188,4.3296875 188.670312,5 189.5,5 C190.329688,5 191,4.3296875 191,3.5 C191,2.6703125 190.329688,2 189.5,2 C188.670312,2 188,2.6703125 188,3.5 Z M188,14.75 C188,15.5796875 188.670312,16.25 189.5,16.25 C190.329688,16.25 191,15.5796875 191,14.75 C191,13.9203125 190.329688,13.25 189.5,13.25 C188.670312,13.25 188,13.9203125 188,14.75 Z" id="ellipsis-v"></path>
            </g>
        </g>
    </g>
</svg>