<?xml version="1.0" encoding="UTF-8"?>
<svg width="19px" height="18px" viewBox="0 0 19 18" version="1.1" xmlns="http://www.w3.org/2000/svg" xmlns:xlink="http://www.w3.org/1999/xlink">
    <!-- Generator: Sketch 49.3 (51167) - http://www.bohemiancoding.com/sketch -->
    <title>globe</title>
    <desc>Created with Sketch.</desc>
    <defs></defs>
    <g id="Page-1" stroke="none" stroke-width="1" fill="none" fill-rule="evenodd">
        <g id="Default" transform="translate(-105.000000, -25.000000)" fill="#8C929D" fill-rule="nonzero">
            <g id="icons" transform="translate(67.000000, 25.000000)">
                <path d="M56.6699982,9 C56.6699982,4.0215121 52.6310667,0 47.6699982,0 C42.7116877,0 38.6699982,4.01879032 38.6699982,9 C38.6699982,13.9695242 42.6997119,18 47.6699982,18 C52.6376353,18 56.6699982,13.972246 56.6699982,9 Z M55.1594135,11.3225806 L51.5509216,11.3225806 C51.8003087,9.76590726 51.7904377,8.17570161 51.5529175,6.67741935 L55.1594498,6.67741935 C55.6254538,8.17980242 55.6255264,9.82008871 55.1594135,11.3225806 Z M47.6700345,16.7803185 C46.5547603,15.7740605 45.7057119,14.2576694 45.2219256,12.483871 L50.118107,12.483871 C49.6342845,14.257996 48.7851635,15.774496 47.6700345,16.7803185 Z M44.9642643,11.3225806 C44.7040264,9.82063306 44.6975667,8.21841532 44.9651716,6.67741935 L50.3748611,6.67741935 C50.642357,8.21805242 50.6360425,9.82016129 50.3757683,11.3225806 L44.9642643,11.3225806 Z M47.6699982,1.21997177 C48.8877925,2.3193871 49.6860707,3.93985887 50.1166191,5.51612903 L45.2233772,5.51612903 C45.6560304,3.93209274 46.4565224,2.31550403 47.6699982,1.21997177 Z M54.6937724,5.51612903 L51.3184457,5.51612903 C50.9218651,3.91383871 50.2529256,2.47844758 49.3626514,1.34433871 C51.6918732,1.85679435 53.6486111,3.40998387 54.6937724,5.51612903 Z M45.9773087,1.34433871 C45.0870707,2.478375 44.4181312,3.91380242 44.0215143,5.51612903 L40.646224,5.51612903 C41.6911675,3.41038306 43.6476514,1.85693952 45.9773087,1.34433871 Z M40.1805828,6.67741935 L43.7871151,6.67741935 C43.5496312,8.17548387 43.5396877,9.76572581 43.7891111,11.3225806 L40.1805828,11.3225806 C39.7145425,9.82019758 39.7144699,8.17991129 40.1805828,6.67741935 Z M40.646224,12.483871 L44.0256514,12.483871 C44.4249175,14.0870323 45.0955264,15.525871 45.9792683,16.6560968 C43.6372361,16.1414274 41.6860143,14.5792016 40.646224,12.483871 Z M49.3609457,16.6560242 C50.2445062,15.5260161 50.9150788,14.0871411 51.3143449,12.483871 L54.6937361,12.483871 C53.6523853,14.5824315 51.6996393,16.1420081 49.3609457,16.6560242 Z" id="globe"></path>
            </g>
        </g>
    </g>
</svg>