<?xml version="1.0" encoding="UTF-8"?>
<svg width="15px" height="12px" viewBox="0 0 15 12" version="1.1" xmlns="http://www.w3.org/2000/svg" xmlns:xlink="http://www.w3.org/1999/xlink">
    <!-- Generator: Sketch 49.3 (51167) - http://www.bohemiancoding.com/sketch -->
    <title>liat</title>
    <desc>Created with Sketch.</desc>
    <defs></defs>
    <g id="Page-1" stroke="none" stroke-width="1" fill="none" fill-rule="evenodd">
        <g id="Size-Extended" transform="translate(-98.000000, -97.000000)" fill="#1F2329" fill-rule="nonzero">
            <g id="icons" transform="translate(67.000000, 25.000000)">
                <path d="M45.82,73.62 L34.66,73.62 C34.5605887,73.62 34.48,73.5394113 34.48,73.44 L34.48,72.72 C34.48,72.6205887 34.5605887,72.54 34.66,72.54 L45.82,72.54 C45.9194113,72.54 46,72.6205887 46,72.72 L46,73.44 C46,73.5394113 45.9194113,73.62 45.82,73.62 Z M46,78.24 L46,77.52 C46,77.4205887 45.9194113,77.34 45.82,77.34 L34.66,77.34 C34.5605887,77.34 34.48,77.4205887 34.48,77.52 L34.48,78.24 C34.48,78.3394113 34.5605887,78.42 34.66,78.42 L45.82,78.42 C45.9194113,78.42 46,78.3394113 46,78.24 Z M46,83.04 L46,82.32 C46,82.2205887 45.9194113,82.14 45.82,82.14 L34.66,82.14 C34.5605887,82.14 34.48,82.2205887 34.48,82.32 L34.48,83.04 C34.48,83.1394113 34.5605887,83.22 34.66,83.22 L45.82,83.22 C45.9194113,83.22 46,83.1394113 46,83.04 Z M33.16,73.8 L33.16,72.36 C33.16,72.16119 32.99881,72 32.8,72 L31.36,72 C31.16119,72 31,72.16119 31,72.36 L31,73.8 C31,73.99881 31.16119,74.16 31.36,74.16 L32.8,74.16 C32.99881,74.16 33.16,73.99881 33.16,73.8 Z M33.16,78.6 L33.16,77.16 C33.16,76.96119 32.99881,76.8 32.8,76.8 L31.36,76.8 C31.16119,76.8 31,76.96119 31,77.16 L31,78.6 C31,78.79881 31.16119,78.96 31.36,78.96 L32.8,78.96 C32.99881,78.96 33.16,78.79881 33.16,78.6 Z M33.16,83.4 L33.16,81.96 C33.16,81.76119 32.99881,81.6 32.8,81.6 L31.36,81.6 C31.16119,81.6 31,81.76119 31,81.96 L31,83.4 C31,83.59881 31.16119,83.76 31.36,83.76 L32.8,83.76 C32.99881,83.76 33.16,83.59881 33.16,83.4 Z" id="liat"></path>
            </g>
        </g>
    </g>
</svg>