<?xml version="1.0" encoding="UTF-8"?>
<svg width="15px" height="14px" viewBox="0 0 15 14" version="1.1" xmlns="http://www.w3.org/2000/svg" xmlns:xlink="http://www.w3.org/1999/xlink">
    <!-- Generator: Sketch 49.3 (51167) - http://www.bohemiancoding.com/sketch -->
    <title>list-alt</title>
    <desc>Created with Sketch.</desc>
    <defs></defs>
    <g id="Page-1" stroke="none" stroke-width="1" fill="none" fill-rule="evenodd">
        <g id="Size-Extended" transform="translate(-98.000000, -128.000000)" fill="#1F2329" fill-rule="nonzero">
            <g id="icons" transform="translate(67.000000, 25.000000)">
                <path d="M44.5885713,103.937143 C44.8469592,103.937143 45.0571427,104.147356 45.0571427,104.405714 L45.0571427,114.714286 C45.0571427,114.972644 44.8469592,115.182857 44.5885713,115.182857 L32.4057143,115.182857 C32.1473264,115.182857 31.9371428,114.972644 31.9371428,114.714286 L31.9371428,104.405714 C31.9371428,104.147356 32.1473264,103.937143 32.4057143,103.937143 L44.5885713,103.937143 Z M44.5885713,103 L32.4057143,103 C31.62935,103 31,103.62935 31,104.405714 L31,114.714286 C31,115.49065 31.62935,116.12 32.4057143,116.12 L44.5885713,116.12 C45.3649356,116.12 45.9942856,115.49065 45.9942856,114.714286 L45.9942856,104.405714 C45.9942856,103.62935 45.3649356,103 44.5885713,103 Z M34.7485714,105.811429 C34.231005,105.811429 33.8114285,106.231005 33.8114285,106.748571 C33.8114285,107.266138 34.231005,107.685714 34.7485714,107.685714 C35.2661378,107.685714 35.6857142,107.266138 35.6857142,106.748571 C35.6857142,106.231005 35.2661378,105.811429 34.7485714,105.811429 Z M34.7485714,108.622857 C34.231005,108.622857 33.8114285,109.042434 33.8114285,109.56 C33.8114285,110.077566 34.231005,110.497143 34.7485714,110.497143 C35.2661378,110.497143 35.6857142,110.077566 35.6857142,109.56 C35.6857142,109.042434 35.2661378,108.622857 34.7485714,108.622857 Z M34.7485714,111.434286 C34.231005,111.434286 33.8114285,111.853862 33.8114285,112.371428 C33.8114285,112.888995 34.231005,113.308571 34.7485714,113.308571 C35.2661378,113.308571 35.6857142,112.888995 35.6857142,112.371428 C35.6857142,111.853862 35.2661378,111.434286 34.7485714,111.434286 Z M43.182857,107.1 L43.182857,106.397143 C43.182857,106.300099 43.1041871,106.221429 43.0071428,106.221429 L36.7985714,106.221429 C36.7015271,106.221429 36.6228571,106.300099 36.6228571,106.397143 L36.6228571,107.1 C36.6228571,107.197044 36.7015271,107.275714 36.7985714,107.275714 L43.0071428,107.275714 C43.1041871,107.275714 43.182857,107.197044 43.182857,107.1 Z M43.182857,109.911429 L43.182857,109.208571 C43.182857,109.111527 43.1041871,109.032857 43.0071428,109.032857 L36.7985714,109.032857 C36.7015271,109.032857 36.6228571,109.111527 36.6228571,109.208571 L36.6228571,109.911429 C36.6228571,110.008473 36.7015271,110.087143 36.7985714,110.087143 L43.0071428,110.087143 C43.1041871,110.087143 43.182857,110.008473 43.182857,109.911429 Z M43.182857,112.722857 L43.182857,112.02 C43.182857,111.922956 43.1041871,111.844286 43.0071428,111.844286 L36.7985714,111.844286 C36.7015271,111.844286 36.6228571,111.922956 36.6228571,112.02 L36.6228571,112.722857 C36.6228571,112.819901 36.7015271,112.898571 36.7985714,112.898571 L43.0071428,112.898571 C43.1041871,112.898571 43.182857,112.819901 43.182857,112.722857 Z" id="list-alt"></path>
            </g>
        </g>
    </g>
</svg>