<?xml version="1.0" encoding="UTF-8"?>
<svg width="19px" height="18px" viewBox="0 0 19 18" version="1.1" xmlns="http://www.w3.org/2000/svg" xmlns:xlink="http://www.w3.org/1999/xlink">
    <!-- Generator: Sketch 49.3 (51167) - http://www.bohemiancoding.com/sketch -->
    <title>plus</title>
    <desc>Created with Sketch.</desc>
    <defs></defs>
    <g id="Page-1" stroke="none" stroke-width="1" fill="none" fill-rule="evenodd">
        <g id="Default" transform="translate(-218.000000, -25.000000)" fill="#8C929D" fill-rule="nonzero">
            <g id="icons" transform="translate(67.000000, 25.000000)">
                <path d="M169.187855,8.27678571 L161.393212,8.27678571 L161.393212,0.482142857 C161.393212,0.216964286 161.176248,0 160.91107,0 L160.428927,0 C160.163748,0 159.946784,0.216964286 159.946784,0.482142857 L159.946784,8.27678571 L152.152141,8.27678571 C151.886962,8.27678571 151.669998,8.49375 151.669998,8.75892857 L151.669998,9.24107143 C151.669998,9.50625 151.886962,9.72321429 152.152141,9.72321429 L159.946784,9.72321429 L159.946784,17.5178571 C159.946784,17.7830357 160.163748,18 160.428927,18 L160.91107,18 C161.176248,18 161.393212,17.7830357 161.393212,17.5178571 L161.393212,9.72321429 L169.187855,9.72321429 C169.453034,9.72321429 169.669998,9.50625 169.669998,9.24107143 L169.669998,8.75892857 C169.669998,8.49375 169.453034,8.27678571 169.187855,8.27678571 Z" id="plus"></path>
            </g>
        </g>
    </g>
</svg>