<?xml version="1.0" encoding="UTF-8"?>
<svg width="18px" height="18px" viewBox="0 0 18 18" version="1.1" xmlns="http://www.w3.org/2000/svg" xmlns:xlink="http://www.w3.org/1999/xlink">
    <!-- Generator: Sketch 49.3 (51167) - http://www.bohemiancoding.com/sketch -->
    <title>search</title>
    <desc>Created with Sketch.</desc>
    <defs></defs>
    <g id="Page-1" stroke="none" stroke-width="1" fill="none" fill-rule="evenodd">
        <g id="Default" transform="translate(-67.000000, -25.000000)" fill="#8C929D" fill-rule="nonzero">
            <g id="icons" transform="translate(67.000000, 25.000000)">
                <path d="M17.8760803,16.9304233 L13.3411455,12.3954885 C13.26029,12.3146331 13.1548264,12.2724476 13.0423319,12.2724476 L12.6802402,12.2724476 C13.8860407,10.9682144 14.6242859,9.22806504 14.6242859,7.31214296 C14.6242859,3.27288707 11.3513989,0 7.31214296,0 C3.27288707,0 0,3.27288707 0,7.31214296 C0,11.3513989 3.27288707,14.6242859 7.31214296,14.6242859 C9.22806504,14.6242859 10.9682144,13.8860407 12.2724476,12.6837557 L12.2724476,13.0423319 C12.2724476,13.1548264 12.3181485,13.26029 12.3954885,13.3411455 L16.9304233,17.8760803 C17.0956496,18.0413066 17.3628241,18.0413066 17.5280504,17.8760803 L17.8760803,17.5280504 C18.0413066,17.3628241 18.0413066,17.0956496 17.8760803,16.9304233 Z M7.31214296,13.4993409 C3.89160686,13.4993409 1.12494507,10.7326791 1.12494507,7.31214296 C1.12494507,3.89160686 3.89160686,1.12494507 7.31214296,1.12494507 C10.7326791,1.12494507 13.4993409,3.89160686 13.4993409,7.31214296 C13.4993409,10.7326791 10.7326791,13.4993409 7.31214296,13.4993409 Z" id="search"></path>
            </g>
        </g>
    </g>
</svg>