<?xml version="1.0" encoding="UTF-8"?>
<svg width="19px" height="18px" viewBox="0 0 19 18" version="1.1" xmlns="http://www.w3.org/2000/svg" xmlns:xlink="http://www.w3.org/1999/xlink">
    <!-- Generator: Sketch 49.3 (51167) - http://www.bohemiancoding.com/sketch -->
    <title>sort-alpha-down</title>
    <desc>Created with Sketch.</desc>
    <defs></defs>
    <g id="Page-1" stroke="none" stroke-width="1" fill="none" fill-rule="evenodd">
        <g id="Default" transform="translate(-182.000000, -25.000000)" fill="#8C929D" fill-rule="nonzero">
            <g id="icons" transform="translate(67.000000, 25.000000)">
                <path d="M123.792521,14.4642857 L120.021135,17.8587723 C119.810746,18.0470491 119.469615,18.0470491 119.25918,17.8587723 L115.487794,14.4642857 C115.277404,14.2760089 115.277404,13.9707321 115.487794,13.7824554 L115.805219,13.4983527 C116.015608,13.3100759 116.356739,13.3100759 116.567174,13.4983527 L118.876923,15.5847455 L118.876923,0.482142857 C118.876923,0.215879464 119.118157,0 119.415693,0 L119.864667,0 C120.162203,0 120.403437,0.215879464 120.403437,0.482142857 L120.403437,15.5847455 L122.713142,13.4983527 C122.923531,13.3100759 123.264662,13.3100759 123.475096,13.4983527 L123.792521,13.7824554 C124.002956,13.9707321 124.002956,14.2760089 123.792521,14.4642857 Z M128.304357,5.61073661 L131.067661,5.61073661 L131.763571,7.39133036 C131.839174,7.58475618 132.043141,7.71428449 132.272125,7.71428571 L132.79078,7.71428571 C133.163878,7.71428571 133.424059,7.38309375 133.297717,7.0689375 L130.58407,0.3189375 C130.507165,0.127589176 130.304364,-1.8018866e-06 130.077133,0 L129.317288,0 C129.090057,-1.8018866e-06 128.887256,0.127589176 128.810351,0.3189375 L126.096704,7.0689375 C125.970407,7.38313393 126.230543,7.71428571 126.603641,7.71428571 L127.10968,7.71428571 C127.339555,7.71428571 127.544108,7.58378571 127.618997,7.38932143 L128.304357,5.61073661 Z M128.761323,4.36250893 L129.572665,2.30363839 C129.610963,2.20078125 129.652403,2.07759375 129.692451,1.95235714 C129.731557,2.07827679 129.772414,2.20222768 129.81116,2.30616964 L130.611278,4.36250893 L128.761323,4.36250893 Z M128.60499,16.7110714 C128.820273,16.4682321 128.552056,16.8045268 132.776727,11.3447812 C132.839153,11.2640966 132.872607,11.1682977 132.872628,11.0701607 L132.872628,10.7678571 C132.872628,10.5015937 132.631394,10.2857143 132.333859,10.2857143 L127.222732,10.2857143 C126.925197,10.2857143 126.683963,10.5015937 126.683963,10.7678571 L126.683963,11.0920179 C126.683963,11.3589643 126.926095,11.5754062 127.224393,11.5754062 C130.899744,11.5754464 130.647286,11.5758482 130.737081,11.5743616 C130.6036,11.7277634 130.941993,11.2887321 126.571674,16.9302857 C126.509077,17.0110901 126.475526,17.1070655 126.475504,17.2053884 L126.475504,17.5178571 C126.475504,17.7841205 126.716738,18 127.014273,18 L132.380148,18 C132.677683,18 132.918917,17.7841205 132.918917,17.5178571 L132.918917,17.1924509 C132.918917,16.9261875 132.677683,16.710308 132.380148,16.710308 C128.450408,16.7102679 128.699903,16.7099062 128.60499,16.7110714 Z" id="sort-alpha-down"></path>
            </g>
        </g>
    </g>
</svg>