<?xml version="1.0" encoding="UTF-8"?>
<svg width="18px" height="18px" viewBox="0 0 18 18" version="1.1" xmlns="http://www.w3.org/2000/svg" xmlns:xlink="http://www.w3.org/1999/xlink">
    <!-- Generator: Sketch 49.3 (51167) - http://www.bohemiancoding.com/sketch -->
    <title>th-list</title>
    <desc>Created with Sketch.</desc>
    <defs></defs>
    <g id="Page-1" stroke="none" stroke-width="1" fill="none" fill-rule="evenodd">
        <g id="Default" transform="translate(-144.000000, -25.000000)" fill="#8C929D" fill-rule="nonzero">
            <g id="icons" transform="translate(67.000000, 25.000000)">
                <path d="M77,1.92857143 L77,16.0714286 C77,17.1365625 77.7555078,18 78.6875,18 L93.3125,18 C94.2444922,18 95,17.1365625 95,16.0714286 L95,1.92857143 C95,0.8634375 94.2444922,0 93.3125,0 L78.6875,0 C77.7555078,0 77,0.8634375 77,1.92857143 Z M93.875,1.92857143 L93.875,5.57144196 L83.75,5.57144196 L83.75,1.28571429 L93.3125,1.28571429 C93.6231758,1.28571429 93.875,1.57351339 93.875,1.92857143 Z M93.875,11.1428437 L83.75,11.1428437 L83.75,6.85715625 L93.875,6.85715625 L93.875,11.1428437 Z M78.125,6.85715625 L82.625,6.85715625 L82.625,11.1428839 L78.125,11.1428839 L78.125,6.85715625 Z M82.625,1.28571429 L82.625,5.57144196 L78.125,5.57144196 L78.125,1.92857143 C78.125,1.57351339 78.3768242,1.28571429 78.6875,1.28571429 L82.625,1.28571429 Z M78.125,16.0714286 L78.125,12.428558 L82.625,12.428558 L82.625,16.7142857 L78.6875,16.7142857 C78.3768242,16.7142857 78.125,16.4264866 78.125,16.0714286 Z M83.75,16.7142857 L83.75,12.428558 L93.875,12.428558 L93.875,16.0714286 C93.875,16.4264866 93.6231758,16.7142857 93.3125,16.7142857 L83.75,16.7142857 Z" id="th-list"></path>
            </g>
        </g>
    </g>
</svg>