<?xml version="1.0" encoding="UTF-8"?>
<svg width="15px" height="15px" viewBox="0 0 15 15" version="1.1" xmlns="http://www.w3.org/2000/svg" xmlns:xlink="http://www.w3.org/1999/xlink">
    <!-- Generator: Sketch 49.3 (51167) - http://www.bohemiancoding.com/sketch -->
    <title>user-circle</title>
    <desc>Created with Sketch.</desc>
    <defs></defs>
    <g id="Page-1" stroke="none" stroke-width="1" fill="none" fill-rule="evenodd">
        <g id="Size-Extended" transform="translate(-98.000000, -168.000000)" fill="#1F2329" fill-rule="nonzero">
            <g id="icons" transform="translate(67.000000, 25.000000)">
                <path d="M38.5,143 C34.3578528,143 31,146.357853 31,150.5 C31,154.642147 34.3578528,158 38.5,158 C42.6421472,158 46,154.642147 46,150.5 C46,146.357853 42.6421472,143 38.5,143 Z M38.5,143.967742 C42.1076512,143.967742 45.0322581,146.892349 45.0322581,150.5 C45.0322581,151.748569 44.681754,152.915181 44.0740726,153.907208 C43.6930544,153.066512 42.9206754,152.588387 42.3512198,152.425685 L41.3587702,152.142137 C42.0127218,151.427278 42.3709677,150.507349 42.3709677,149.532258 C42.3709677,147.394486 40.6414617,145.66129 38.5,145.66129 C36.3621673,145.66129 34.6290323,147.390887 34.6290323,149.532258 C34.6290323,150.507349 34.9872782,151.427278 35.6412601,152.142107 L34.6488105,152.425655 C34.0898488,152.585363 33.3094859,153.05995 32.9256552,153.906694 C32.318125,152.914788 31.9677419,151.748357 31.9677419,150.5 C31.9677419,146.892349 34.8923488,143.967742 38.5,143.967742 Z M38.5,152.435484 C36.8965726,152.435484 35.5967742,151.135655 35.5967742,149.532258 C35.5967742,147.928861 36.8965726,146.629032 38.5,146.629032 C40.1034274,146.629032 41.4032258,147.928861 41.4032258,149.532258 C41.4032258,151.135655 40.1034274,152.435484 38.5,152.435484 Z M38.5,157.032258 C36.5841129,157.032258 34.8608972,156.20744 33.6660081,154.893548 C33.7175706,154.174304 34.212873,153.556673 34.9146371,153.356169 L36.5628528,152.885242 C37.1452823,153.223014 37.8087601,153.403226 38.5,153.403226 C39.1912399,153.403226 39.8547177,153.223014 40.4371169,152.885272 L42.0853327,153.3562 C42.7870968,153.556704 43.2823992,154.174335 43.3339617,154.893579 C42.1391028,156.20744 40.4158871,157.032258 38.5,157.032258 Z" id="user-circle"></path>
            </g>
        </g>
    </g>
</svg>